# xmcd
#
# Track frame offsets: 
#        150
#        16449
#        33479
#        48306
#        76055
#        99251
#        115377
#        128619
#        143973
#        163731
#        181762
#        195196
#        206549
#        219044
#
# Disc length: 3111 seconds
#
# Revision: 1
# Processed by: cddbd v1.5.2PL0 Copyright (c) Steve Scherf et al.
# Submitted via: ExactAudioCopy v1.3
#
DISCID=ac0c250e
DTITLE=Various Artist - Soulbag Sampler, Mar 2008
DYEAR=2008
DGENRE=Blues
TTITLE0=Orgone - Who knows who
TTITLE1=Bobby Wayne - Leaving signs
TTITLE2=Wanda Johnson - Droppin' names
TTITLE3=Eddy Clearwater - Trouble, trouble
TTITLE4=Gerry Hundt - Trying hard
TTITLE5=Honeyboy Edwards - Roamin' and ramblin'
TTITLE6=Betty and Charles - Can't find love
TTITLE7=Big Dez - You can smile
TTITLE8=Boscoe - He keeps you
TTITLE9=Melanie Rutherford - Thick girl anthem
TTITLE10=Mr Tchang and The Texas Sluts - Doggone man
TTITLE11=Al Cook - Shame and scandal blues
TTITLE12=Rufus Thomas - Easy livin' plan
TTITLE13=Roomful Of Blues - Solid jam
EXTD=Soul Bag #190, mars 2008
EXTT0=
EXTT1=
EXTT2=
EXTT3=
EXTT4=
EXTT5=
EXTT6=
EXTT7=
EXTT8=
EXTT9=
EXTT10=
EXTT11=
EXTT12=
EXTT13=
PLAYORDER=
